# xmcd
#
# Track frame offsets:
#	150
#	15767
#	31075
#	51262
#	67287
#	77175
#	91575
#	106862
#	120912
#
# Disc length: 1925 seconds
#
# Revision: 0
# Processed by: cddbd v1.5.2PL0 Copyright (c) Steve Scherf et al.
# Submitted via: EasyCDDAExtractor 11.5.3.1
#
DISCID=5e078309
DTITLE=Michael Vraa and His Big Roll Band - One Little Step
DYEAR=1992
DGENRE=Country
TTITLE0=Niki Hokey
TTITLE1=Bop
TTITLE2=My Own Way To Rock
TTITLE3=The Long Walk
TTITLE4=Boogie Man
TTITLE5=Learning The Game
TTITLE6=One Little Step
TTITLE7=Your Backyard
TTITLE8=Seems Like I Can't Live With You, But I Can't Live Without You
EXTD=
EXTT0=
EXTT1=
EXTT2=
EXTT3=
EXTT4=
EXTT5=
EXTT6=
EXTT7=
EXTT8=
PLAYORDER=
